# xmcd
#
# Track frame offsets: 
#        150
#        16376
#        26287
#        30533
#        35725
#        37534
#        43048
#        43469
#        55109
#        55650
#        58231
#        70402
#        74117
#        80956
#        87294
#        98486
#        117821
#        126076
#        150912
#        154456
#        161585
#        162182
#        166613
#        183562
#        187801
#        203949
#        222463
#        238549
#        242274
#        243076
#        248614
#        249698
#        255224
#        264784
#        274613
#        278927
#        279904
#        291875
#        292995
#        307413
#        310859
#        331317
#
# Disc length: 4792 seconds
#
# Revision: 0
# Processed by: cddbd v1.5.2PL0 Copyright (c) Steve Scherf et al.
# Submitted via: ExactAudioCopy v0.95b3
#
DISCID=4c12b62a
DTITLE=The Beatles  - AB  Road - Complete Purple Chick Set v1.1 Jan.24
DTITLE=Various Artist - D3  FLAC
DYEAR=1900
DGENRE=
TTITLE0=The Long And Winding Road 24.50
TTITLE1=Window, Window 24.51
TTITLE2=Window, Window 24.52
TTITLE3=Two Of Us 24.53
TTITLE4=Dialogue
TTITLE5=Get Back 23.74P
TTITLE6=Get Back 23.78P
TTITLE7=Get Back 23.79P
TTITLE8=I've Got A Feeling 23.80P
TTITLE9=Help! 23.81P
TTITLE10=Two Of Us 24.54
TTITLE11=Get Back 24.55
TTITLE12=Get Back 24.56
TTITLE13=Two Of Us 24.57
TTITLE14=Her Majesty 24.58
TTITLE15=There You Are Eddie 24.59
TTITLE16=Every Night 24.60
TTITLE17=Pillow For Your Head-There You Are Eddie 24.61
TTITLE18=Pillow For Your Head 24.62
TTITLE19=Hot As Sun 24.63
TTITLE20=Catswalk 24.64
TTITLE21=Two Of Us 24.65
TTITLE22=Two Of Us 24.66
TTITLE23=Two Of Us 24.67
TTITLE24=Two Of Us-Hello Goodbye 24.68
TTITLE25=Two Of Us 24.69
TTITLE26=Two Of Us 24.70
TTITLE27=Diggin My Potatoes 24.71
TTITLE28=Hey Liley, Liley Ho 24.72
TTITLE29=Rock Island Line 24.73
TTITLE30=Improvisation 24.74
TTITLE31=Unknown 24.75
TTITLE32=Two Of Us 24.76
TTITLE33=Tiger Rag 24.77
TTITLE34=Michael Row Your Boat Ashore 24.78
TTITLE35=Rock A Bye Baby 24.79
TTITLE36=Singin The Blues 24.80
TTITLE37=Knee Deep In The Blues 24.81
TTITLE38=Dig It 24.82
TTITLE39=Dig It 24.83
TTITLE40=Dig It 24.84
TTITLE41=Dig It 24.85
EXTD=
EXTT0=
EXTT1=
EXTT2=
EXTT3=
EXTT4=
EXTT5=
EXTT6=
EXTT7=
EXTT8=
EXTT9=
EXTT10=
EXTT11=
EXTT12=
EXTT13=
EXTT14=
EXTT15=
EXTT16=
EXTT17=
EXTT18=
EXTT19=
EXTT20=
EXTT21=
EXTT22=
EXTT23=
EXTT24=
EXTT25=
EXTT26=
EXTT27=
EXTT28=
EXTT29=
EXTT30=
EXTT31=
EXTT32=
EXTT33=
EXTT34=
EXTT35=
EXTT36=
EXTT37=
EXTT38=
EXTT39=
EXTT40=
EXTT41=
PLAYORDER=
